<svg id="Layer_1" data-name="Layer 1" xmlns="http://www.w3.org/2000/svg" viewBox="0 0 495.2 936"><defs><style>.cls-1{fill:#fff;}</style></defs><path d="M291.85,855c.06-34.34-.14-68.69.07-103,.1-16.51-1-32.61-5.1-48.11-2.84-10.81-4.89-22.38-9-32.1-4.82-11.41-10.36-23.32-17.57-31.23-16.36-18-35-29.3-56.27-30.62l11.43-2.72H182.94v-2.51h31c-5.92-7.89-11.2-5.58-17-2.81,5.76-8.61,15.7-7.31,20.4-2.13,8.38,9.23,17.83,12.52,28.29,13.66-3.18-4.24-5.91-8.62-9.14-12-5.18-5.45-10.31-11.56-16.14-15-7.48-4.42-15.17-.29-22.51,3.32-8.2,4-16.37,8.26-24.59,12.24-4.88,2.37-9.82,4.13-13.73.7l24.62-9.71-.33-2.28c-.57-.09-1.15-.19-1.72-.26-6.57-.73-12.92-1.79-19.77-1-10.09,1.11-20.51-4.13-30.8-6.67l.28-2.24c11.63-1.08,22.66,9.23,34.91,2.89l-18.37-14.1c0-.47.08-.94.13-1.41,3.5,1.86,7.1,3.44,10.5,5.64,5.41,3.5,10.45,8.85,16.08,10.84,11.84,4.19,23.78,1.49,36.05-1.66-18.07-16.15-38.62-10.62-57.3-17.4,25.26-2.67,49.65,4.13,73.25,18.19-37-30.57-76.29-43.21-118.66-31.8,18.55-6.12,37-10.65,56-6.61s36.52,13.35,54.79,24.57c-1.34-5.66-2.09-9.34-6.06-10.6-5.26-1.69-10.79-3.7-15.33-7.67a49.6,49.6,0,0,0-18.1-10.55c-3.5-1.08-7-2.3-10.21-3.38,15.38-6.2,26.74,10.26,41.35,17.11-2.65-4.3-4.29-7-5.92-9.64.3-.48.6-1,.91-1.45,4.3,5,10.61,8.78,12.47,15.25,3.65,12.67,9.36,20,17.85,24.19a13.25,13.25,0,0,1,2.6,1.86c10.78,9.14,21.56,18.29,33.4,28.35-4.62-12.88-11.82-18.65-19.41-22-10.67-4.78-14.85-16.77-18.55-30a51.58,51.58,0,0,1,6.69,11.63c2.63,6.94,6.38,11.35,11.56,13.26,2.84,1.05,6.38.47,8.49,2.77,3.64,4,6.6,9.43,9.51,14.66,6.28,11.3,12.7,22.14,24.52,25.49-1.87-7.12-2.87-14.13-5.37-19.76-4.59-10.35-11.41-17.45-18.79-23.64-9.73-8.16-19-17.6-28.72-25.66a147.38,147.38,0,0,0-22.89-16c-13.78-7.5-28.28-10.15-43-11.87-18.35-2.14-36.49-.6-54.63,2.89-9.52,1.84-19,4.49-29.58-1,9.72-.28,18.52,1.37,27.07-6.15L95.61,514.09c10.42,3.06,20.53,7.19,30.68,11.06,10.56,4,20.87.59,31.47-3.11-4.87-5.46-10.13-9.75-15.08-14.68-6.9-6.88-13.64-12.38-21.48-2.29l9.5-11.7c-5.25-3.77-9.89-8.14-15-10.58-15.3-7.37-28-18.93-35.39-40.72-.61-1.79-2.5-2.67-3.09-3.27,2.36-11.74-1.43-22.46-3.5-34.47,8.46,7.45,4.5,21.42,8.55,29.15l30.48-9.64c.17-10.15-.47-20.95-6.51-28-5.41-6.36-12-10.62-18.06-15.83-.78-.67-1.5-1.47-2.24-2.2.12-.36.25-.72.37-1.07,5.71,3.2,11.41,6.41,17.21,9.68.18-2.6.33-4.66.34-4.81C112.07,394,120.63,407,129.18,420l1.46-.89c-.6-11.61-.68-23.34-2-34.78-1.3-11.65-4.63-22.39-10.57-31.15,5.92,4.5,10.39,11.07,11.92,20.43,2.06,12.64,3.29,25.57,5,38.34,1.34,10.07,2.06,20.55,7.57,28.86,6.85-12.34,4.95-25.49,3.63-39.16.72.37.87,1.31,1.19,2.09,4.85,11.51,4.39,23.05-.29,34.23-2.12,5.05-3.29,8.53,1.48,12,6.84,4.94,13.36,10.78,21.41,17.38.94-10.63,1.73-19.62,2.6-29.62-9.39,1.29-16.34-1.41-19.31-15.57,5.24,7.7,10.85,10.79,18.07,9.71-2-16.78-4-32.68-8.63-47.65-5.21-16.69-14.78-28.08-23.31-40.76-8.63-12.84-16-26.72-17.39-45.38a39.23,39.23,0,0,1,4.34-21,8.31,8.31,0,0,1,.21,3.83c-4.54,19.78.83,36.12,9.13,50.72,5.47,9.6,12.09,17.82,18.19,26.67l.93-.85c-1.8-4.84-3.61-9.68-5.26-14.12h1.89V325.15c1.08,1.68.79,3.45,1.13,4.92,1.33,5.81,1.71,13.95,4.55,16.76,6.13,6.07,13.55,9.39,20.57,13.92-.33-3.93-.73-7.35-.89-10.79-.46-10-2.54-18.21-9.27-23.5-3-2.39-5.74-7.22-7.24-11.87-4.07-12.61-7.79-25.52-10.91-38.68-2-8.38-2.58-17.38,2.88-24.93-1.57,32.45,8.43,66.66,22.41,77,.56-12.66,1.79-25.42-6.15-35.14,8.46,7.27,11,18.35,10.9,31.52-.1,10.61.17,21.23.29,33.48,2.65-3.68,4.29-5.35,5.36-7.6,1.68-3.52,4.24-7.45,4.2-11.16-.11-10.39-.64-21-4.63-30.3-1-2.36-1.83-4.88-2.74-7.33l1.83-1.28c3.49,10.35,7,20.69,10.45,30.95,3.92-11.35,3.63-23.71,2.41-36.25,5.66,11.95,4.38,24.15.62,36.31-4.55,14.67-1.22,34.43,7.54,42.81,9.78,9.35,21.34,10.34,32.38,14.73-1.6-24.74-16.39-32-26.64-45.28,6.67,4,13.63,7.57,19.18,13.77C242,370.9,243,390.86,240.49,410.8c-1.49,11.69-6,22.49-8.44,34-3.49,16.4,1.12,31,11.4,37.43-2.53-12.78-.55-26.43-5.82-38.12-1.57-3.48-2.44-8.06.72-11.41,1.31,5.8,2.62,11.56,3.92,17.33l1.22-.16,1.95-17.68,1.3,0c0,5.55.2,11.12-.05,16.64-.35,7.9-1.85,15.88-1.29,23.59.39,5.46,2.47,13.09,5.39,15.25,7.22,5.33,15.36,8.08,24.1,12.34-2.18-9.88-3.61-17.51-5.6-24.82-.8-2.94-2.69-5.4-4.34-7.69-2.77-3.85-6.5-6.69-8.51-11.18-7.6-16.91-10-35.27-6.8-55.36,1.42-8.9,2.69-18.9,1.31-27.49-3.07-19.22-13-31.41-24.18-41.54-5.14-4.67-11.82-7.79-15.05-14.42-6.33-13-10.86-27.85-15.85-42.14-1.09-3.11-1-7.08-1.56-11.36l17.45,49.58,1.55-.57c1.15-6.61,2.3-13.22,3.27-18.81L203.9,278.9l.64-1.07L217,290.22c4.19-14.75,5.11-26.58-4.87-37.1-8.82-9.28-10.32-24.12-8.78-39.33.06-.63.69-1.14,1.67-2.65-.83,22.11,4.89,38.29,17.47,49.81,2.74-14.61,4.1-28.58-2.29-42.18-2.3-4.88-3.45-10.89-5.12-16.38l1.65-1.11c1.64,4.42,2.87,9.31,5,13.18,7.53,13.81,6.52,29.2,4.21,44.71-1.57,10.58-3.8,21-5.76,31.53l30.55,19.85c1.43-6.08-1.43-15-5.72-21.07C238.28,280,231,270.43,233.82,254c2.52,19.82,14.24,29.69,22.09,44-1.13-13.11-3.38-25.72-4.8-38.52-1.19-10.66-6-16.57-11.52-22.07-2.09-2.08-4.38-3.93-6.15-6.51-9.08-13.19-15.42-28.41-15.82-48.63-2.12,2.65-3.79,4.77-5.48,6.84-5.76,7-11.34,14.42-17.35,21-5.53,6-12.38,5.31-18.9,6.7-7.46,1.58-13.5-.21-19.08-7.71C146.13,194.77,140,176.54,135,157.3a387.68,387.68,0,0,1-11.87-70.94c-1.48-21.07-2.67-42-.85-63.09.63-7.28.81-14.64,1.2-22L122.15.65c-1.24,3.07-2.85,6-3.66,9.25-6.93,28-13.66,56.13-20.57,84.15-2.76,11.17-6.47,21.93-8.58,33.32-4.25,22.9-7.41,46.21-11.55,69.15-5.44,30.1-11.6,59.92-17,90a169,169,0,0,0-2.61,29c0,12.35,1.11,24.72,2,37.05.4,5.75,1.31,11.42,2,17.13l1.31-.22c.45-4,.87-8,1.38-12,.93-7.3,1.81-14.61,3-21.84.23-1.39,1.57-2.41,2.4-3.6.49,1.56,1.41,3.14,1.38,4.67-.14,6-.88,12.1-.84,18.14.21,33.34.73,66.67.88,100,.1,24.77,2.78,49,8.65,72C85,545.57,91.89,563.08,97.92,581c5.3,15.83,9.93,32.29,16.31,47.16,9.4,21.91,20.06,42.7,30.28,63.86,3,6.28,7.25,5.79,8.5-1.49,1.48-8.52,1.7-17.5,2.4-26.29.2-2.55.18-5.13.26-7.69l1.68-.11c.35,2.76.86,5.51,1,8.29.5,8.85.09,18,1.43,26.52,3.84,24.6,9.86,48,20.58,68.4,9.15,17.43,18.51,34.52,29.7,49.36,1,1.27,1.35,3.52,1.87,5.4,1.41,5.11,2.53,10.41,4.15,15.38,2.42,7.45,5.16,14.69,8.22,23.3h-.15a10.53,10.53,0,0,1,1.07,6.14,11.82,11.82,0,0,1,0,5.61,11.68,11.68,0,0,1,.29,3.79c1.28,1.81,1.83,6.74,2.79,9.93.13.43.18.91.34,1.3,5.19,12,10.32,24.12,15.61,36.05,2.22,5,4.78,9.66,7.28,14.66h0a6,6,0,0,1,1.57,2.24l.08,0c.08-.56.2-1.1.28-1.66.18-1.27.3-2.55.46-3.83l-.23.14a918.37,918.37,0,0,1-11-97.24,7.43,7.43,0,0,1,3.67,4.35c2,6.56,3.9,13.22,5.7,19.91,5.94,22.12,6.61,47.26,18.43,66.07,2.23,3.55,3.57,5.89,6.06,1.67l4.29,8.76a4.21,4.21,0,0,1,1.91,1.47,10.47,10.47,0,0,1,6.09.33c1.05-2.15,2.09-4.29,3.17-6.41a11.48,11.48,0,0,1-.5-3.25C291.59,900.4,291.81,877.67,291.85,855Z" transform="translate(-58.19 -0.15)"/><path d="M218.47,606.41l-3.06.73h3C218.44,606.89,218.45,606.65,218.47,606.41Z" transform="translate(-58.19 -0.15)"/><path d="M548.92,370.08c-4.15-12.35-1.94-26.74-6.58-38.35l-1.64.22c-.13,3.3-.4,6.6-.36,9.9.3,22,1.32,44.11.83,66.11-.61,27.79-1.88,55.61-3.88,83.26-1.89,26.17-8.77,50.31-17.24,73.47-1.51,4.13-3.58,6.77-7,5.58-9.33-3.27-18.65-6.66-28-10a40.63,40.63,0,0,1-4-2c6.55-3.89,12.54-7.77,18.69-11,4-2.11,7.94-.8,11.5,2.81a48.56,48.56,0,0,0,9.14,7.5c-2-8.11-5.61-13.86-11.59-17.5l18.85-9.42c-5.26-4.49-9.85-2-14.38.19-15.51,7.61-31,15.45-46.51,22.87-4.06,1.93-8.4,2.67-13.26,4.16,5-9.85,11.65-14,18.85-17.06,9.52-4,19-8.26,28.4-12.85,3.17-1.54,6-4.5,9-6.72,5.51-4,5.64-11.07,5.07-18.84-5.13,14.49-20.54,28.73-33.92,29.87,3.24-3.12,6.38-6.5,9.75-9.3,4.44-3.7,9.41-6.27,13.49-10.62,2.8-3,4.47-8.18,6-13.21-7.19,12.86-18.68,16-26.77,25.63-8.4,10-18.62,13.27-27.94,20.87q3.3-9.2,6.61-18.39l-1.14-.9c-3.12,7.92-6.56,15.62-9.25,23.83-2,6.23-4.78,10.52-9.45,11.72-5.3,1.35-10.64,2.35-15.85,3.48,4.84-9.78,8.63-20,14.12-27.77a51.09,51.09,0,0,1,17.07-14.84c12.4-6.82,25.32-11.62,37.79-18.22,7.26-3.84,12.23-11.78,13.59-23.71C501.75,497.91,489,501.34,476.75,509c2.31-8.21,3.5-15.9,6.41-21.81s7.47-9.81,12.29-15.81c-8.55,3.11-14.84,7.56-17.67,19.06l-1.12-.82c.52-7.66,1-15.33,1.53-22.45-3.82,3.19-5.7,10.8-4.64,20.48,1.68,15.28-.37,20.88-10.27,26.26-6.23,3.38-12.63,6-19,9l-1.25-2.22c5.28-9.78,10.44-19.71,15.88-29.3,5.58-9.84,11.39-19.4,17.2-28.95a17.12,17.12,0,0,1,4.31-5c10.13-7.23,20.17-14.49,27.29-28a6.53,6.53,0,0,1,4.53-3c6.52-1.06,11.86-5.62,16.77-11.39a19,19,0,0,0,3.48-7.84c-5.21,8.3-11.86,11.5-18.68,13.79,3.72-10.54,8.32-20.33,10.7-31.14a301.33,301.33,0,0,0,6.71-45.43c.5-7.82-2.38-16.58-4.84-24.16s-6.36-14.47-9.62-21.64l-1.18.84c2.32,6.69,3.92,14.23,7.11,19.91,7.38,13.16,6.85,27.42,4.2,42.79-3.23-17-9.62-30.39-20.72-40.52,10.91,21.59,19.79,42.67,12.32,69.54.23-19.94-11.16-31.58-16.06-47.8l-1.27.28c.48,3.73.43,7.85,1.56,11.11,1.55,4.51,4,8.42,6.06,12.53,9,17.56,9.67,35.18-2,49.59q-3.94-19-7.93-38.09a4.2,4.2,0,0,0-.64-1.87c-6-6.08-3.17-13.45-1.68-20.88,4.32-21.44,8.93-42.7,17.63-61.45,2.28-4.92,5.16-9.26,8.53-15.23-9.11,9-15.69,21-20.49,38.83-3.93,14.56-7.09,29.56-10.79,45.17-1.89-3.88-3.42-7-5-10.18l-1.42.17c4.59,10.36,6.92,20.51-.25,29.6-3.22-19.14-7-64.57,11.53-113.84-5.95,5.87-10.27,17.1-12.43,33-1.76,12.95-3.15,26-5.05,38.93-.46,3.15-2.27,5.89-4.06,8.58,0-8.14-2-16,1.57-24,3.23-7.29,3.47-16,1.09-24.82l-2.08,20.82-.63-.28c-.84-10.85-1.46-21.75-2.63-32.52a50.35,50.35,0,0,0-3.35-13c-2.25-5.57-6-7.24-11.16-5.4C467.67,276,470,287.21,470.24,300.4c.12,7.49.45,15,1,22.43.37,4.95-1.14,7.92-3.78,10.38-2.82,2.62-5.57,5.42-8.52,8.32.53-20-4.68-37.52-8.73-55.5-1-4.48-.59-10.37.5-14.95,1.77-7.39,4.63-14.23,6.73-21.91l-12.26,22.51c-2.8-6.25-6.2-12.72-8.67-19.86-1-2.94-.43-7.48.18-11,.84-4.92,2.45-9.56,3.62-14.38,1.32-5.45,3.55-8.45,7.58-10.82,8.15-4.78,13.22-15.14,17.78-25.73,10.41-24.22,16.2-50.91,20.14-78.6,3.37-23.68,5.49-47.57,4.83-71.78-.31-11.43-1.42-22.82-2.13-34.23a8.7,8.7,0,0,1,1.07-5.1c1,3,2.27,5.78,3,8.86,7,27.7,14.12,55.31,20.71,83.2,5.33,22.6,10.36,45.37,14.8,68.37,5.22,27.07,9.68,54.46,14.42,81.73,3.48,20,7.31,39.94,10.09,60.16,1.24,9,.68,18.78.24,28.13-.56,11.89-1.8,23.72-2.81,35.56A22.08,22.08,0,0,1,548.92,370.08Z" transform="translate(-58.19 -0.15)"/><path d="M491.22,567.74c-8.71-4.51-17.44-9.11-27-3.16a137,137,0,0,1-20.05,9.88c-6.3,2.64-12.77,4.45-19.17,6.62a13.89,13.89,0,0,0,6.44,3.58c10.14,2.88,20.07,4.73,26.48-11.14.47-1.15,1.39-1.92,2.84-3.87-4.55,18-13.64,25.57-24.78,29.45,12.22,2.84,24.2,8.59,35.8-1.8-7.71,13.48-17.78,10.74-27.45,8.78-9.39-1.91-18.41-8.85-28.27-3.27-2,1.16-4.45.85-6.63,1.55-4.77,1.52-9.49,3.25-14.24,4.89.14.91.28,1.82.41,2.74l17.45-1.65c-2.86,3.09-6,5.88-9.26,6.45-6.75,1.17-13.6,1-20.39,1.67-12.76,1.25-22.94,8.76-28.12,26.53-2.53,8.69-3.91,18.06-6.14,27-8.74,34.78-15.13,70.2-15.53,107.56-.06,4.79.3,10.35-2.46,14.4a9.83,9.83,0,0,1-.27,1.64c-.22.83-.44,1.65-.65,2.48a27.16,27.16,0,0,1,5.41-2.13c2.18,12.32,1,17.27-5.68,23.38-.12-.65-.23-1.28-.34-1.89,0,.3.06.6.08.89a79.05,79.05,0,0,1,.14,9.59c1.62-1.51,3.88-1,7.74.9,1.92.92,4,1,6.07,1.47l-10.7-8c4.08-11.1,11.07-10.32,18.8-7.34-.39,4.54-.78,9.08-1.23,14.27l-7,.9a10.54,10.54,0,0,0,2.56,1.84c3.05.91,3.31,2.32,1.38,6.07-2.88,5.58-5.78,9.53-10.87,5.93,3.52,4,3.44,5.48-.42,7.77a9.79,9.79,0,0,1-3,1.27,10.94,10.94,0,0,1-1,4.08l1.5.7V935c12.66-33.34,14.29-72.27,27.07-105l1.61.1c.21,4.18.9,8.45.54,12.52-1.08,12.21-2.32,24.42-4,36.5-1.95,14.36-4.36,28.59-6.66,42.85a4.83,4.83,0,0,1-.29,1,11.75,11.75,0,0,1-.41,4.16,8.68,8.68,0,0,1-.37,2.84,12,12,0,0,1,0,1.34c0,.15,0,.3,0,.46a11.86,11.86,0,0,1,.24,3.72c0,.23.08.44.11.67a32.77,32.77,0,0,1,3.28-4.75,6.55,6.55,0,0,1,.7-1.28,7.52,7.52,0,0,1,.27-.8l.35-.66a8.36,8.36,0,0,1,.57-1.25c.08-.27.17-.52.27-.77a21.62,21.62,0,0,1,1.58-5.2c8.53-20.1,16.81-40.49,24.33-61.42a160.43,160.43,0,0,0,9.78-57.12c-.12-7-.51-14.31.58-21,2-12,5-23.59,7.51-35.26a2.37,2.37,0,0,1,.82,1.45c2.79,20.24,3.49,40.45-1,60.78a261.22,261.22,0,0,0,38.82-67.71c10-25.89,14.42-54.42,15.56-84.2,1.17,6.21,1.31,12.23,1.64,18.23.26,4.63.33,9.44,1.31,13.79.61,2.73,2.57,6.23,4.25,6.64s4.17-2,5.52-4.25a130.06,130.06,0,0,0,7.71-15c9.27-20.85,18.75-41.53,27.48-62.85,4.78-11.67,8.22-24.5,12.68-38.08C506,578.3,498.88,571.7,491.22,567.74ZM347.43,789.61c-.81,4.44-1.52,8.28-2.22,12.12l-5.86,3.71C336,796.18,338.2,791.08,347.43,789.61ZM342,809.24c1.11-2.47,2.2-5,3.3-7.42l5.94-4.16,0-.11,3.9,3C352.84,812.79,352.62,812.93,342,809.24Zm13.79-12.35c-1,1.17-3,.48-4.61.57l-2.47-7.73c2.56-1.3,5.11-3,7.78-3.73,1-.26,2.23,1.89,3.36,2.94C358.52,791.66,357.49,794.88,355.78,796.89Z" transform="translate(-58.19 -0.15)"/><path d="M256.37,264.82a21.3,21.3,0,0,1-2-4.32c-3.82-16.28-7.39-32.69-11.35-48.9-1.86-7.6-2.23-14.82-.28-22.45A166.18,166.18,0,0,0,246,171.87C234.42,194.61,240,217,247.8,240c-18.59-12.88-24.8-35.16-26.72-61.22a5.83,5.83,0,0,1,.6-3.18c8.64-12.09,16.54-25.27,27.14-34.31,10-8.5,20.24-6.26,30.56-3.67,8.05,2,16,5.2,24,7.79a5.22,5.22,0,0,0,2.9.16c7.39-2,14.73-4.52,22.16-6.11,7.81-1.67,15.74-3.76,23.55-3.23,4.76.32,10.25,3.76,13.91,8.33,12.26,15.29,23.8,31.79,35.71,47.66,3.67,4.89,7.79,9,11.44,14,2.86,3.85,5.32,8.33,8.25,13l-36.55,48.13c-6.86-20.58-4.44-41.37,4-61.88-3.68,1.5-7.43,8.8-8.11,15.24-2.49,23.79-1.64,47,6.51,68.63,1.85,4.91,1.88,8.79-1.92,11.67-2.46,1.86-4.82,4-7.22,6q1.2,1.88,2.42,3.75l9.51-10.33c3.82,16.39,13.14,28.39,15.43,45.88,1.34,10.29-.81,18.22-7.43,22.53-3.92,2.55-7.83,5.12-13.13,8.6,9.05-19.6,7-38.75,4-58-.82,22.13,4.43,46.41-12,63.51-1.17-13.06-2.77-25.59-3.16-38.2-.13-4.43,2.58-9.14,4.22-13.55,1.86-5,4-9.76,5-15.42l-10.68,18.63c-4.33-18.57-3.39-25.73,4.07-44.89-2.86,4.89-6.67,9.2-8.33,14.83s-1.34,12.84-1.82,18.69l-9.71-15.56-.57.7c2.62,7.41,5.62,14.59,7.76,22.28,2.08,7.46,6.4,15,1.23,24.87-2.05-6.77-3.86-12.79-5.55-18.39-1.61,5.92-.08,11.76,2.32,17.65a16.13,16.13,0,0,1-3,17.69h0c.2-1.77.4-3.53.58-5.14l-11.83,13.58c-3.26-16.5-3.26-16.5,8.58-27.28l-6.14-.5c2.76-12.67,13.52-23.64,3.5-39.54.64,7.45,2.91,14.32-1.08,20.58a58.65,58.65,0,0,1,0-36.88c1.87-5.91,5.47-10.71,8.37-15.92a159.74,159.74,0,0,0,7.94-15.18c-9.26,11.39-19.23,21.93-21.56,41-1,8.28-1.17,16.38,1.49,23.93a23.74,23.74,0,0,1-1,19c-1.6,3.44-2.89,7.17-5.26,13.14-2.63-12.63-4.88-23.5-7.07-34-2.38,3-3.12,8.16-1.81,13.92,1.5,6.61,3,13.24,5,19.6,1.6,5.23,1.85,9.71-2.52,15.27-.81-4.4-1.67-7.88-2.06-11.47-.43-4-.42-8.08-1.56-12-.47,3.6-.93,7.2-1.46,11.29-3.72-3-4.54-6.13-4.41-12.43.3-15.24,6.92-26.78,9.49-40.53a23.5,23.5,0,0,0,.81-4.7c-.5-18.62,8.09-29.51,16.9-39.24,5.84-6.43,13.09-10.17,18.4-14.15-13.94,1.19-24.46,14.73-33.73,32.35-.53-7.61-1.18-14-1.3-20.4,0-2,1.18-4.2,2.15-6,6.25-11.28,10.23-24.16,12.68-38,.84-4.77,1.9-8.62,5.31-10.75,3.18-2,2.72-4.25-.06-6.87-1.21-1.12-2.08-3.86-2.34-6.06-.89-7.53-1.45-15.15-2.13-22.73l-2,.3c.32,7.87.63,15.75,1,25.25-34.47-26-67.3-21.15-100.82,7.19,5.5,3.93,9.91,7.25,14.43,10.24a65.24,65.24,0,0,0,9.88,5.57c2.71,1.18,3.86,3.32,3.08,7.1-3.27,15.86-.27,30.15,4.57,44.34,2.93,8.62,5,17.88,7.57,27.48-5.9-6.58-10.92-13.35-16.69-18.33-7.47-6.46-6.57-15.9-5.65-25.56.73-7.73,2-15.36,2.18-23.24-2.3,11.85-4.6,23.69-7,36.06l-7-10.75c.1,1.37.16,2.31.22,3.26Z" transform="translate(-58.19 -0.15)"/><path d="M474.06,459.28l-35.74,61.53,8.29-37c-5.39,4.71-8.45,13.34-10.38,22.56-1.85,8.84-2.87,18.07-3.93,27.21-1.1,9.47-5.43,15.4-10,21.37-8.46,11-18.89,14.18-29.61,16.88-10.26,2.57-20.59,5.21-29.44,14.09-6.78,6.79-11.72,15.94-15.55,26.34-2.43,6.63-4.48,13.57-7.27,20.06.88-12.82,2.1-26,7.78-36,8.35-14.68,18.34-27.39,26.71-42,6.34-11.09,14.77-9.67,22.61-10.42,13.09-1.26,22.23-10.54,29.3-25.67-6.95,7.35-13.17,16.64-23.16,16.24,4.17-4.11,8.28-8.38,12.53-12.3,5.58-5.14,12.52-7.52,15.88-17.13-10.86,9.72-24.47,13.28-31.86,30.91-1.07,2.55-4.18,3.83-6.51,4.57s-5.08.17-7.36.17c3.92-9.5,7.3-19.55,11.9-28.24,3.32-6.26,8.13-11,12.61-15.73,1.06-1.12,3.68,0,5.28,1,5.69,3.65,10.88,3.12,15.74-3.27-5.22,3.41-10.09,2.72-16.1-2.83,7.08-1.69,12.92-2.76,18.64-4.63,2.12-.7,3.95-3.26,5.59-5.68-11.58,5.09-24.64,1.51-34.62,13.94C414.3,470,442.35,456.22,474.06,459.28Z" transform="translate(-58.19 -0.15)"/><path d="M359.34,539c5-10.22,9.77-20.78,15.18-30.57,6.1-11,9.35-23.76,11.84-37.06,2-10.81,7.76-17.35,13.74-22.34,2.84-2.37,7.68.58,11.61.58a21.71,21.71,0,0,0,9.38-2.23l-15.26-2.75-.2-2.2c2.93-1.09,5.84-2.59,8.82-3.15,3.83-.71,7.75-.47,11.6-1,4.81-.65,6.68-4.81,5.95-12.76-3.4,10.32-9.28,9.62-16,9.15,5.31-8.47,13.61-11.73,16.17-23.14-13.61,13.44-27,26.7-41.35,40.87,3.92-10.91,8.7-18.72,15-24.51,13.15-12.15,26.62-23.62,39.49-36.34,8.87-8.76,17-19.16,25.22-28.63,1.69,8.38,3.53,17.81,5.5,27.19.46,2.19,1,4.74,2.06,6.2,5.37,7.22,3.93,16.07,3.2,24.81-.31,3.85-.65,7.69-1,11.54l-1.41-.13v-24c-3.82,6.34-4.4,13.05-3.57,20.15,1.15,9.84-2,15.48-9.17,16.08-9.36.78-18.72,1.6-28.35,2,6.75-4.91,9.91-15.37,17.52-20.12,9.69-6.06,15.37-14.71,13.92-30.1a16.56,16.56,0,0,0-1.28-5c-1,16.73-6.68,27.8-18.33,33.88.77-8.07,1.45-15.26,2.13-22.45l-1.32-.67c-2.3,8.35-4.61,16.71-6.81,24.65-2.75-14.48-.2-21.55,12.47-33.85-9.11.87-17.62,8.26-16.17,23.89a76.61,76.61,0,0,1-.11,12.67c-.84,11.21-6.38,17.05-12.84,20.43-12.43,6.49-24.16,14.51-32.68,29.58a256.18,256.18,0,0,0-13.45,28.19C375.49,520.89,369.35,532.51,359.34,539Z" transform="translate(-58.19 -0.15)"/><path d="M277.85,549.1c1.67,4,3.33,8.08,5.06,12.28-4.89-1.87-4.89-1.87-16.8-25.21.26,12.24,6.85,25.37,15,30,4,2.26,8.1,4.35,12.05,6.85,9.36,5.93,12.31,18.21,14.18,31.25a136.31,136.31,0,0,1,.92,16.37c-4.6-21.15-13.7-37.22-25.94-49.82-5.1-5.25-10.51-9.89-15.62-15.13-1.6-1.65-3.55-4.08-3.89-6.58-2.38-17.07-11.3-26.46-19.71-36.58s-17.87-18-24.53-31.2c-4.81-9.5-3.25-19.55-3.82-31.85,2.27,4,3.94,6.29,5.08,9,8.3,20.07,20.47,33.34,35.45,41,7.32,3.72,7.81,12.81,10.83,22.77-11-10.91-19.7-24-33.26-26.24,5.65,5.08,10.69,9.43,15.59,14.07,6.05,5.72,11.76,12.26,18,17.35A44.79,44.79,0,0,0,280.75,535c5.95,2,10.31,5.73,12.59,14.27,1.94,7.3,4.3,14.38,6.92,23-9.57-5.38-15.11-15.45-21.37-24.18Z" transform="translate(-58.19 -0.15)"/><path d="M223.24,537.38c-8.53-2.84-17.23-4.91-25.52-8.8-5.52-2.58-6.49-11.36-8.11-18.56-.62-2.79-.9-5.74-1.34-8.62h-1.35c-.15,3.39-.3,6.79-.45,10.05l-19.62-13.34c7.74,10.2,19.73,11.9,24.3,27.67-9.41-.68-18.69-1.24-28-2.06-2.78-.25-8.75-11.84-8.67-16.58.1-6.06-.74-11-5.6-12.51,1.12,4.62,2.23,9.14,3.33,13.66l-1.11,1.21-16.5-13.06c11.38-7.23,22.6-7.81,33.63-9.13,11.74-1.41,22.51,4.48,31.48,14.59C208.5,511.75,216,524,224,535.25Z" transform="translate(-58.19 -0.15)"/><path d="M313.61,293.31c-1.12-11,2.47-17.92,6-25a84.56,84.56,0,0,0,5.49-13c.86-2.77.52-6.32.79-10.55-6.92,15.68-13.22,29.93-19.81,44.87-5.91-7.06-8.51-17.33-11.05-27.42a42.72,42.72,0,0,1-1-13.7c1.25-13.2,3.33-15,12.55-15.71a82.08,82.08,0,0,0,17.68-3.58c2.85-.87,3.93.66,4.5,3.87,1.56,8.74,3.11,17.5,4.35,26.34a11.53,11.53,0,0,1-1.09,6.6C326.16,275.12,320.06,283.84,313.61,293.31Z" transform="translate(-58.19 -0.15)"/><path d="M229.38,304.65c7.44,17,16.72,31.89,19.93,52a76.51,76.51,0,0,0-29.13-34.47c-3.78-2.45-5-5.21-3.17-11.1,1.34-4.33,1.69-9.31,2.62-14.77,2.57,1.51,5.23,2.92,7.8,4.61,9.32,6.12,18.07,13.55,24.71,25.09,7.83,13.61,10.48,30.11,8.12,46.73-4.21,29.67-3.46,58.22,4.46,86.3.21.74.33,1.54.74,3.56-9.5-9.82-13-23-13.32-37.5a258.44,258.44,0,0,1,2.05-35.4c1.52-13.21,1.35-25.82-2.16-38.34-4.52-16.11-9.86-31.43-19-43.27A28.16,28.16,0,0,0,229.38,304.65Z" transform="translate(-58.19 -0.15)"/><path d="M190,374.94l-2.17,1.55c14.9,18.64,31.11,36.07,33.84,69.78-6.94-15.38-16.43-22.43-26.41-28.55-7.36-4.51-14.74-9-22-14-5.31-3.68-6.37-7.3-4-15.1,2-6.75,4.14-14.35,7.79-18.95,4.84-6.11,8.19,4.89,12.85,5.33Z" transform="translate(-58.19 -0.15)"/><path d="M317.19,470l-9.33,12.92c-12.24-18.22-12.68-43.79-1.26-60.18,3.15-4.52,6.68-4.9,10.11-1.89,3.23,2.82,6.67,5.13,5.68,13.25-1.12,9-.26,18.59-.26,28.95L306,459.8l-.3.94c4.23,2.17,8.4,4.59,12.68,6.45,7.7,3.34,9.78,13.16,4.22,21.19-4.08,5.87-8.38,11.41-12.64,17.18-3.18-8-1.22-15.05,2.34-21.88,2.08-4,4-8.17,6.06-12.26Z" transform="translate(-58.19 -0.15)"/><path d="M256.32,548.4q-18.27-22.59-36.57-45.15a77.55,77.55,0,0,0-5.47-5.8c-5.46-5.5-10.08-11.45-11.89-21.69-1.28-7.23-4.9-13.52-6.87-20.58-1.4-5-1.8-10.6-2.77-16.77,7.69-1.67,13.68,1,19.28,5.75.86.73,1.61,3.57,1.32,5-4.72,23,2.59,39,14.32,52.56,8.67,10,17.15,20.44,25.81,30.5,3.35,3.89,4.4,8.82,4.23,14.6Z" transform="translate(-58.19 -0.15)"/><path d="M358.63,372.15c-.49,5.19-1.88,10.6-1.29,15.52,1.45,12.16-2.29,21.37-6.52,30.75-2.63,5.82-4.86,12-7.26,18.07-3.69,9.27-4.44,18.38,1.18,27.07-5.78,1.12-7.88-3.26-10.2-9.63-5.36-14.74-1.18-26.39,4.33-38.06,1.62-3.42,3.48-6.6,5.23-9.89-13.46,8.51-17.82,31.75-10.42,56.69h-7.84v-26.3l.59-.16.95,3.16c.22-.34.58-.66.56-.92-.74-8.77-1.06-17.46,1-26.06,1.11-4.7,2.28-8.65,5.78-11.17,8.67-6.24,17.26-12.9,22.7-25.32.51-1.16.83-2.5,1.25-3.75Z" transform="translate(-58.19 -0.15)"/><path d="M428,281.32c-1.85,6.8-1.09,15-5.32,21.64,2.75,10.32-3.9,18.21-5.85,28.12-2.19-15.53-4.32-30.68-6.45-45.82l-1.19-.08c0,5-.33,10,.07,14.94.95,11.51,2.51,22.93,3.28,34.47.27,4-1,8.26-1.81,13.69l-18.71-51.35C404.07,279.32,415.64,277.19,428,281.32Z" transform="translate(-58.19 -0.15)"/><path d="M431.52,283c9.68,4.69,15.35,15.28,19.46,27.8.78,2.38,0,6.27-.73,9.14-.77,3.12-2.28,5.86-3.58,9.05-1.18-7.43-2.26-14.26-3.47-21.88,0,8.9.29,16.77-.14,24.55-.17,3.15-1.38,7-3,9a201.28,201.28,0,0,1-19.79,20.64c3.28-5.64,6.83-11,9.78-17,5.16-10.46,4.3-24.39-1.35-34.12a13,13,0,0,1-1.2-7.26C428.53,296.19,430.13,289.61,431.52,283Z" transform="translate(-58.19 -0.15)"/><path d="M453.3,324.75c-2,24.93-4.57,49.72-20.29,65.69-5.48,5.58-11.65,9.74-17.37,14.85-7.64,6.83-15.16,13.95-22.74,20.94-.93.85-1.89,1.62-3,2.53-.05-10.05,4.41-18.67,10.54-23.19,9.12-6.71,18.44-13.23,26.76-21.72a64.56,64.56,0,0,0,18.13-36.74C446.6,338.06,449.09,331.22,453.3,324.75Z" transform="translate(-58.19 -0.15)"/><path d="M189.94,375c9.44,9.07,20.16,13,31.06,16.19a72.26,72.26,0,0,1,9.21,3.86c4.36,2,5.8,6.77,4.35,12.53-2.68,10.63-5.86,21-9.38,33.38-1.47-6.12-2.34-10.15-3.39-14.07-5.49-20.5-16.13-34.41-28.28-46.44-1.39-1.37-2.35-3.66-3.51-5.53Z" transform="translate(-58.19 -0.15)"/><path d="M181.3,481.44c-7,0-13.65-1.08-20.05.27a110.16,110.16,0,0,0-23.75,8.39c-5.72,2.68-8.46,1.28-8.17-7.52.17-5.06,1.84-10.13,3.27-14.92a4.72,4.72,0,0,1,3.54-2.77C148.44,463.34,170.79,471.51,181.3,481.44Z" transform="translate(-58.19 -0.15)"/><path d="M423.05,225.76l6.9,43.53c-13.09-8.9-25-9.59-37.17-4.81l-.66-1.92L421,225.88Z" transform="translate(-58.19 -0.15)"/><path d="M83.08,437.53,111.77,431V462C97.45,468.51,91.08,463.88,83.08,437.53Z" transform="translate(-58.19 -0.15)"/><path d="M416.12,378.9,392,409.31l-1.18-1.23c2.23-4.8,3.93-10.46,6.8-14.22,7-9.21,14.45-17.89,22.05-26.12,7.18-7.76,14.79-14.68,22.05-21.8,1.59,13.59-21.61,46.46-33.16,49.15l-1.41-2,10.32-12.31Z" transform="translate(-58.19 -0.15)"/><path d="M256.28,264.91c.94,2.17,1.61,4.73,2.85,6.42,6.61,9,6.13,21.58,7.87,33.36l-3.94-6.28-.73.51c1.36,4.05,2.29,8.59,4.16,12.05,8.06,14.85,8.83,20.88-.63,37.68a15.53,15.53,0,0,0-.31-3.39c-8.69-20.69-5.92-44.51-8.69-66.8-.55-4.44-.37-9.06-.5-13.62C256.37,264.82,256.28,264.91,256.28,264.91Z" transform="translate(-58.19 -0.15)"/><path d="M369.26,617.88c19.16-32,44.25-29.17,69.57-24.7-4.73,1.34-9.43,3-14.19,4-7.77,1.64-15.68,2.16-23.32,4.59-4.16,1.33-7.88,5.62-11.79,8.61-1,.73-1.81,2-2.82,2.31C381.13,614.44,375.51,616,369.26,617.88Z" transform="translate(-58.19 -0.15)"/><path d="M374,432.17c-1.72-15.11,9.69-23,9.45-38.29-2.75,6.24-5.13,11.66-7.51,17.08l-.78-.53c.53-5.76.65-11.68,1.76-17.19a11.78,11.78,0,0,1,4.54-6.48c5.35-3.87,10.92-7.12,17.35-11.22-2.81,7.54-5.33,13.69-7.42,20.12-1.33,4.11-2.69,8.58-2.91,13-.48,10.11-6.54,13.2-10.43,19A44.16,44.16,0,0,1,374,432.17Z" transform="translate(-58.19 -0.15)"/><path d="M341.09,529.1c-2.54-11-2.11-10.35,3.39-17.78,4.59-6.2,8-14.18,12-21.37l-1.19-1.5-13,19.71-1.13-1.07c3.14-7.88,5.92-16.13,9.55-23.52,2.24-4.58,6.07-3.9,9.21-1.08,2.73,2.46,3.66,5.9,2.47,10.83C358.56,509.14,350.66,519.65,341.09,529.1Z" transform="translate(-58.19 -0.15)"/><path d="M481.6,440.7c1.79-4.18,3.41-8.53,5.4-12.49,3.36-6.67,2.91-13.39.81-20.44-1.39-4.66-2.84-9.34-3.79-14.21-.57-3,.34-6.54,3-3.94,6.81,6.63,12.35,14.87,13.39,27.52.77,9.37-2.36,15.76-7.79,19.83-3.07,2.3-6.49,3.6-9.75,5.36Z" transform="translate(-58.19 -0.15)"/><path d="M291.23,379.09c2.67,12.82,2.07,22.94-5.38,30.84-4,4.2-7.39,9.42-11,14.08-6.28-7.37-6.06-17.79.41-26.14C280.2,391.53,285.5,385.8,291.23,379.09Z" transform="translate(-58.19 -0.15)"/><path d="M304,416.93c-6.24,15.64-11.77,31.21-8,49.66,1,4.93,3.27,9.51,5.46,13.71,3.78,7.25,4.57,10.34,3.65,20.62-9.09-11.53-14.16-25.59-14.95-42.5a177,177,0,0,1,.81-24.47C292,422.4,295.26,418.55,304,416.93Z" transform="translate(-58.19 -0.15)"/><path d="M267.76,286.7c23.44,18.75,29.32,52.63,19.5,63.71-2.94-6.45-6-12.78-8.72-19.4-.65-1.58-.51-4.23-.19-6.21a40,40,0,0,0-5.78-28.74C271,293.59,269.8,290.71,267.76,286.7Z" transform="translate(-58.19 -0.15)"/><path d="M175,436.45c1.86,1.82,3.08,2.56,3.86,3.87,3.62,6.12,7.07,12.47,10.68,18.6,4,6.82,8.15,13.49,12.23,20.22l-1.12,1.94c-6.5-3.17-12.88-7.09-19.54-9.27-5.47-1.79-6.77-5.61-6.21-13.05C175.35,452,175,445.19,175,436.45Z" transform="translate(-58.19 -0.15)"/><path d="M428.11,274.25c-15.19-6.74-26.34,4.05-37.17,17.59-1.66-7.33-5.48-12.94-2.56-20.34.61-1.55,1.41-3.72,2.39-4.06,12.36-4.35,24.5-4.35,36,5A11,11,0,0,1,428.11,274.25Z" transform="translate(-58.19 -0.15)"/><path d="M354.77,464.3c-8.85-12.21-7.38-26.22,4.8-47.4C368,429.87,366.47,445.59,354.77,464.3Z" transform="translate(-58.19 -0.15)"/><path d="M281.72,227.26l13,5c-5.73,23.58-7.39,33.37-4.05,58.31C284.22,270,276.08,250.93,281.72,227.26Z" transform="translate(-58.19 -0.15)"/><path d="M296,311.84c5.84,10.8,11.74,21.41,17.32,32.38.72,1.42.31,5.36-.59,6.89-1.4,2.38-3.67,3.68-5.62,5.49.16-4.31.32-8.5.48-12.69-3.9,10.16-5,22.86-14,26.84-4-6.7-1.17-11.57,1.93-17,5.23-9.07,5.24-19.65,3.07-30.47C297.76,319.4,296.8,315.56,296,311.84Z" transform="translate(-58.19 -0.15)"/><path d="M137.12,448.87c-4.09,15.44-13.74,9.36-21.48,13.27-.31-9.88-.61-19.11-.92-28.92C124.63,433.73,131.17,440.16,137.12,448.87Z" transform="translate(-58.19 -0.15)"/><path d="M304.5,409.72l21.05-43.42c6.85,7,4.45,29.73-5.36,36C315.13,405.56,309.64,407.35,304.5,409.72Z" transform="translate(-58.19 -0.15)"/><path d="M323.76,524.88c-3.78-5-7.34-9.75-11.61-15.44l16.26-22.33c1.13,8,2.31,14.48,2.92,21.09C332.24,518,332.07,518.07,323.76,524.88Z" transform="translate(-58.19 -0.15)"/><path d="M319.68,593.31c-.79-4.71-1.36-9.52-2.4-14.1-3.63-16,1.23-29.9,5.18-44,.29-1,3.14-1.7,4.16-.87,2.2,1.78,4,4.64,6.11,7.29C324.19,556.63,321,574.48,319.68,593.31Z" transform="translate(-58.19 -0.15)"/><path d="M267.69,378c-5.19-18.27,2.56-30.29,9.34-42.81L285,354.82Z" transform="translate(-58.19 -0.15)"/><path d="M207.2,436.91c-4.55-4.37-11.51,1.45-15.16-9.27-.31,2.41-.52,4-.63,4.86-4.89,0-9.42.39-13.88-.24-1.27-.18-3-3-3.39-5.09-1.15-6.45-1.75-13.11-2.38-18.21L208,434.16Z" transform="translate(-58.19 -0.15)"/><path d="M330.27,227.72,349,217.86l1.25.9Q345.12,236.24,340,253.7l-1.57-.93q1.5-5.16,3-10.32l-.77-.61-5,11.51C333.9,245,332.08,236.32,330.27,227.72Z" transform="translate(-58.19 -0.15)"/><path d="M334.85,501.85c-1.68-10-7.36-19.13-2.92-32.15l18,2.49Z" transform="translate(-58.19 -0.15)"/><path d="M332.25,275.18c-2.08,14.35-4.17,28.7-6.43,44.26-3.73-6.94-7.07-12.94-10.18-19.17-.4-.8,0-3.24.61-4.15,4.84-7.4,9.82-14.61,14.76-21.88Z" transform="translate(-58.19 -0.15)"/><path d="M454,372.18c1.23-7.18,2.21-14.43,3.78-21.4a15.73,15.73,0,0,1,3.94-6.8c2.78-3,5.88-5.38,8.89-8.06C472.49,356,468.33,365.05,454,372.18Z" transform="translate(-58.19 -0.15)"/><path d="M372.15,482.88c-4-5.76-8.09-11.53-12.95-18.46,1.82-4.63,4.92-12.52,8.68-22.07,1.42,8.64,2.15,16.25,4,23.27C373.79,473,373.28,479.42,372.15,482.88Z" transform="translate(-58.19 -0.15)"/><path d="M165.73,385.94q-4.69-17.25-9.39-34.6l.93-1.51c5.51,4.35,11.06,8.58,16.44,13.23.51.44.37,3.86-.2,5.28C171.19,374.09,168.57,379.59,165.73,385.94Z" transform="translate(-58.19 -0.15)"/><path d="M309.28,306.05c9.46,12.49,13.41,31.54,7.81,38.62-3.81-7.42-8.47-14.21-11-22.39C305,318.5,308,312,309.28,306.05Z" transform="translate(-58.19 -0.15)"/><path d="M293,272.43c4.52,8.86,8.52,17.23,12.94,25.13,1.91,3.43,1.92,5.87.19,9.21-1.42,2.75-2.43,6-3.95,9.78C296.78,302.7,292,289.33,293,272.43Z" transform="translate(-58.19 -0.15)"/><path d="M426.25,313.45c6.16,11.69.35,33.8-14,43Z" transform="translate(-58.19 -0.15)"/><path d="M267.18,505.56c10.15,5.47,16.56,14,19.17,25.94C275.67,531.62,268.64,527.17,267.18,505.56Z" transform="translate(-58.19 -0.15)"/><path d="M318.88,353.19c-3.27,15.73-11.49,24.57-18.33,35.87C298.79,375.85,309.14,355.37,318.88,353.19Z" transform="translate(-58.19 -0.15)"/><path d="M298.53,500.87c12.23,11.91,15.07,29,13.12,48.75Q305.09,525.25,298.53,500.87Z" transform="translate(-58.19 -0.15)"/><path d="M331.44,605.08c-.67-20.2-.49-40.36,10.6-55.87l1.66,0c0,2.53.55,5.41-.1,7.52-2.41,8-5.67,15.44-7.74,23.56C333.84,588.28,332.87,596.81,331.44,605.08Z" transform="translate(-58.19 -0.15)"/><path d="M200.54,376.33l-19.32-12.87L189.87,349Z" transform="translate(-58.19 -0.15)"/><path d="M386.94,424.76c1.14,5.48-.36,9.11-2.92,13.37-3.69,6.15-6.32,13.64-9.19,20.09C370.58,444.25,373.21,435.6,386.94,424.76Z" transform="translate(-58.19 -0.15)"/><path d="M373.93,396.11q-2.93,16.41-5.86,32.82l-1.06-.18c-1.42-5.09-3-10.12-4.18-15.31a8.34,8.34,0,0,1,.62-4.92c2.74-4.81,5.72-9.32,8.61-13.93Z" transform="translate(-58.19 -0.15)"/><path d="M131.43,430.63l-15.83-6.24V405.81Z" transform="translate(-58.19 -0.15)"/><path d="M433.87,237.34l-8-21.48,14.38,1.64C437.94,224.74,435.86,231.17,433.87,237.34Z" transform="translate(-58.19 -0.15)"/><path d="M287.72,366c3.07,5.42,2.61,8.81-1,12.45-5,5-9.48,10.94-14.94,17.38C274.92,382.39,281.85,375.06,287.72,366Z" transform="translate(-58.19 -0.15)"/><path d="M478.73,380.67c-.84-1.79-2.15-3.44-2.45-5.41-1.42-9.57-5-19.63,2.43-27.95q.74,16.08,1.48,32.12Z" transform="translate(-58.19 -0.15)"/><path d="M115.62,466.27l13.2-1.53c-1.17,6-2.22,11.37-3.51,17.92C122.23,477.44,119.29,472.48,115.62,466.27Z" transform="translate(-58.19 -0.15)"/><path d="M181.24,437.83l9.79-1v17.3C187.5,449.13,181.18,448.23,181.24,437.83Z" transform="translate(-58.19 -0.15)"/><path d="M359.42,531.22,348,553.28c-1.06-4.15-1.64-6.43-2.44-9.55l12.9-14.1Z" transform="translate(-58.19 -0.15)"/><path d="M115.64,478l-14.89-9.57C110,462.9,113.37,464.78,115.64,478Z" transform="translate(-58.19 -0.15)"/><path d="M497.8,393.57l-9.05-8.44,3.94-12c2.46,7.05,4.56,13.09,6.66,19.12Z" transform="translate(-58.19 -0.15)"/><path d="M326.88,529.14c2.78-4.91,6.22-6.39,9.15-3.35s1.77,7.73-.62,11.89Z" transform="translate(-58.19 -0.15)"/><path d="M313.52,518.18l8.37,9.92c-1.87,4.26-3.6,8.22-5.64,12.88C315.32,533.2,314.48,526.17,313.52,518.18Z" transform="translate(-58.19 -0.15)"/><path d="M327.39,405.83c-1.26,5.75-2.11,9.58-3,13.55l-8.47-6.77Z" transform="translate(-58.19 -0.15)"/><path d="M399.36,385.05c1.57-11.95,8.33-15.19,14.89-18.74Z" transform="translate(-58.19 -0.15)"/><path d="M365.48,372.1q-2.18,11.31-4.36,22.62l-2.24-.94q2.24-11.28,4.48-22.57Z" transform="translate(-58.19 -0.15)"/><path d="M443.43,283.87l-7.65-22.14,1.22-1q4.19,10.78,8.36,21.57Z" transform="translate(-58.19 -0.15)"/><path d="M274.91,320.74q-2.52-9.25-5.06-18.51l2-1.08,4.56,18.79Z" transform="translate(-58.19 -0.15)"/><path class="cls-1" d="M346.05,831.87A10.52,10.52,0,0,1,343.5,830l.16.19c-2-.47-4.15-.55-6.07-1.47-3.86-1.85-6.12-2.41-7.74-.9a55.44,55.44,0,0,1-1.69,11.21l2.23,1.93,6.2,2.88c5.06,3.59,8-.36,10.84-5.94C349.36,834.19,349.1,832.78,346.05,831.87Z" transform="translate(-58.19 -0.15)"/><path class="cls-1" d="M343.66,830.23l-10.7-8c4.08-11.1,11.07-10.32,18.8-7.34-.39,4.54-.78,9.08-1.23,14.27l-7,.9Z" transform="translate(-58.19 -0.15)"/><path class="cls-1" d="M335.65,795.89a27.16,27.16,0,0,0-5.41,2.13c-.34,1.29-.67,2.59-1,3.86-.71,5,0,10.44.41,15.5.11.61.22,1.24.34,1.89C336.69,813.16,337.83,808.21,335.65,795.89Z" transform="translate(-58.19 -0.15)"/><path class="cls-1" d="M336.59,843.88l-6.2-2.88c-.8-.17-1.61-.35-2.39-.47,0,.15,0,.28,0,.43-.09,1.41-.23,2.83-.4,4.27.69.21,1.36.41,2,.62,2.68.92,3.72,4,3.55,7.06a9.79,9.79,0,0,0,3-1.27C340,849.35,340.08,847.9,336.59,843.88Z" transform="translate(-58.19 -0.15)"/><path class="cls-1" d="M345.18,801.9l6.05-4.24-.15-.2,4,3.1c-2.25,12.23-2.47,12.37-13.1,8.68,1.14-2.54,2.26-5.08,3.39-7.62Z" transform="translate(-58.19 -0.15)"/><path class="cls-1" d="M345.18,801.9l.2-.28-6,3.82c-3.38-9.26-1.15-14.36,8.08-15.83C346.6,794.12,345.89,798,345.18,801.9Z" transform="translate(-58.19 -0.15)"/><path class="cls-1" d="M351.23,797.66c-.73-2.29-1.46-4.59-2.53-7.93,2.56-1.3,5.11-3,7.78-3.73,1-.26,2.23,1.89,3.36,2.94-1.32,2.72-2.35,5.94-4.06,7.95-1,1.19-3.09.45-4.7.57Z" transform="translate(-58.19 -0.15)"/></svg>